<svg width="24" height="24" viewBox="0 0 24 24" xmlns="http://www.w3.org/2000/svg">
<path d="M16.6731 8.40002H15V11.907L13.331 11.907L15.962 15.4L18.593 11.907L16.6731 11.907V8.40002Z" />
<path d="M10.4469 11.394V15.0949H12.164V8.40002H10.3588L9.08199 11.1335L7.80518 8.4001H6V15.095H7.71712V11.3941L8.33352 12.6416H9.78647L9.83049 12.6415L10.4469 11.394Z" />
<path d="M20 6.5V17.5H4V6.5H20ZM20 4.5H4C2.9 4.5 2 5.4 2 6.5V17.5C2 18.6 2.9 19.5 4 19.5H20C21.1 19.5 22 18.6 22 17.5V6.5C22 5.4 21.1 4.5 20 4.5Z" />
</svg>
