<svg width="24" height="24" viewBox="0 0 24 24" xmlns="http://www.w3.org/2000/svg">
<g clip-path="url(#clip0)">
<path d="M12.7266 7.3335H10.4092V8.95361H12.8086C14.5654 8.95361 15.9565 9.38086 16.9819 10.2354C18.0142 11.083 18.5303 12.228 18.5303 13.6704C18.5303 15.1196 18.0176 16.2852 16.9922 17.167C15.9736 18.042 14.6167 18.4863 12.9214 18.5H7.3125V7.3335H5.55908V5.45703H7.3125V3.57031H10.4092V5.45703H12.7266V7.3335ZM10.4092 11.4351V16.0288H12.8599C13.646 16.0288 14.2715 15.8135 14.7363 15.3828C15.208 14.9521 15.4438 14.3745 15.4438 13.6499C15.4438 12.9731 15.2183 12.4399 14.7671 12.0503C14.3228 11.6538 13.7109 11.4487 12.9316 11.4351H10.4092Z"  />
</g>
<defs>
<clipPath id="clip0">
<rect width="24" height="24" fill="white"/>
</clipPath>
</defs>
</svg>
