<svg width="24" height="24" viewBox="0 0 24 24"  xmlns="http://www.w3.org/2000/svg">
<path d="M6 20.9766L6.19922 19.9805C6.37109 19.9258 6.61133 19.8613 6.91992 19.7871C7.22852 19.7129 7.50977 19.6387 7.76367 19.5645C8.01758 19.4902 8.25 19.3984 8.46094 19.2891C8.67969 19.0156 8.83984 18.6211 8.94141 18.1055C8.94922 18.0508 9.19141 16.9219 9.66797 14.7188C10.1445 12.5156 10.5898 10.3926 11.0039 8.34961C11.418 6.30664 11.6211 5.14844 11.6133 4.875V4.58203C11.4258 4.48047 11.2129 4.4082 10.9746 4.36523C10.7363 4.32227 10.4648 4.29102 10.1602 4.27148C9.85547 4.25195 9.62891 4.23047 9.48047 4.20703L9.70312 3C9.96094 3.01562 10.4297 3.04102 11.1094 3.07617C11.7891 3.11133 12.373 3.13867 12.8613 3.1582C13.3496 3.17773 13.8203 3.1875 14.2734 3.1875C14.6484 3.1875 15.0332 3.17773 15.4277 3.1582C15.8223 3.13867 16.2949 3.11133 16.8457 3.07617C17.3965 3.04102 17.7812 3.01562 18 3C17.9609 3.30469 17.8867 3.65234 17.7773 4.04297C17.543 4.12109 17.1465 4.23242 16.5879 4.37695C16.0293 4.52148 15.6055 4.65234 15.3164 4.76953C15.2539 4.91797 15.1992 5.08398 15.1523 5.26758C15.1055 5.45117 15.0703 5.60742 15.0469 5.73633C15.0234 5.86523 14.9941 6.04297 14.959 6.26953C14.9238 6.49609 14.8984 6.66016 14.8828 6.76172C14.6719 7.91797 14.3301 9.55664 13.8574 11.6777C13.3848 13.7988 13.082 15.1875 12.9492 15.8438C12.9336 15.9141 12.8828 16.1406 12.7969 16.5234C12.7109 16.9062 12.6328 17.2578 12.5625 17.5781C12.4922 17.8984 12.4297 18.2246 12.375 18.5566C12.3203 18.8887 12.2969 19.1133 12.3047 19.2305L12.3164 19.4414C12.4492 19.4727 13.1719 19.5938 14.4844 19.8047C14.4609 20.1484 14.3984 20.5352 14.2969 20.9648C14.2109 20.9648 14.084 20.9707 13.916 20.9824C13.748 20.9941 13.6211 21 13.5352 21C13.3086 21 12.9688 20.9609 12.5156 20.8828C12.0625 20.8047 11.7266 20.7656 11.5078 20.7656C10.4297 20.75 9.625 20.7422 9.09375 20.7422C8.69531 20.7422 8.13672 20.7773 7.41797 20.8477C6.69922 20.918 6.22656 20.9609 6 20.9766Z" />
</svg>
