<svg width="24" height="24" viewBox="0 0 24 24"  xmlns="http://www.w3.org/2000/svg">

<path d="M21.7983 12C21.9086 12 21.9992 12.0352 22.0701 12.1055C22.141 12.1758 22.1765 12.2656 22.1765 12.375V13.125C22.1765 13.2344 22.141 13.3242 22.0701 13.3945C21.9992 13.4648 21.9086 13.5 21.7983 13.5H1.37815C1.26786 13.5 1.17726 13.4648 1.10636 13.3945C1.03545 13.3242 1 13.2344 1 13.125V12.375C1 12.2656 1.03545 12.1758 1.10636 12.1055C1.17726 12.0352 1.26786 12 1.37815 12H21.7983ZM6.70772 11.25C6.48713 10.9766 6.28624 10.6641 6.10504 10.3125C5.72689 9.54688 5.53782 8.8125 5.53782 8.10938C5.53782 6.69531 6.06565 5.48828 7.12132 4.48828C8.16912 3.49609 9.71717 3 11.7655 3C12.1594 3 12.8172 3.07422 13.739 3.22266C14.2589 3.31641 14.9561 3.50391 15.8306 3.78516C15.9094 4.08203 15.9921 4.54297 16.0788 5.16797C16.1891 6.12891 16.2442 6.84375 16.2442 7.3125C16.2442 7.45312 16.2245 7.62891 16.1851 7.83984L16.0433 7.875L15.0507 7.80469L14.8852 7.78125C14.4913 6.61719 14.0856 5.81641 13.6681 5.37891C12.9748 4.66797 12.1476 4.3125 11.1864 4.3125C10.2883 4.3125 9.57143 4.54297 9.03571 5.00391C8.50788 5.45703 8.24396 6.02734 8.24396 6.71484C8.24396 7.28516 8.50394 7.83203 9.0239 8.35547C9.54385 8.87891 10.6429 9.38281 12.3209 9.86719C12.8645 10.0234 13.546 10.2812 14.3653 10.6406C14.8222 10.8594 15.1964 11.0625 15.4879 11.25H6.70772ZM12.6991 14.25H17.5559C17.6111 14.5547 17.6387 14.9141 17.6387 15.3281C17.6387 16.1953 17.4772 17.0234 17.1541 17.8125C16.973 18.25 16.6933 18.6562 16.3151 19.0312C16.0236 19.3047 15.5943 19.6211 15.027 19.9805C14.3968 20.3555 13.7941 20.6133 13.219 20.7539C12.5888 20.918 11.7891 21 10.8201 21C9.92201 21 9.15389 20.9102 8.51576 20.7305L6.86134 20.2617C6.41229 20.1367 6.12868 20.0273 6.0105 19.9336C5.94748 19.8711 5.91597 19.7852 5.91597 19.6758V19.5234C5.91597 18.6797 5.90809 18.0703 5.89233 17.6953C5.88445 17.4609 5.88445 17.1953 5.89233 16.8984L5.91597 16.4648V15.9492L7.12132 15.9258C7.2395 16.1914 7.35767 16.4688 7.47584 16.7578C7.59401 17.0469 7.68264 17.2656 7.74173 17.4141C7.80081 17.5625 7.85005 17.668 7.88944 17.7305C8.16518 18.1758 8.4803 18.543 8.83482 18.832C9.17358 19.1133 9.58718 19.3359 10.0756 19.5C10.5404 19.6719 11.0604 19.7578 11.6355 19.7578C12.1397 19.7578 12.6872 19.6523 13.2781 19.4414C13.8847 19.2383 14.3653 18.9023 14.7198 18.4336C15.0901 17.957 15.2752 17.4531 15.2752 16.9219C15.2752 16.2656 14.9561 15.6523 14.318 15.082C14.0502 14.8555 13.5105 14.5781 12.6991 14.25Z" />
</svg>
