<svg width="24" height="24" viewBox="0 0 24 24"  xmlns="http://www.w3.org/2000/svg">

<path d="M10.3068 19.3242C10.8674 19.5742 11.3977 19.6992 11.8977 19.6992C14.7462 19.6992 16.1705 18.3906 16.1705 15.7734C16.1705 14.8828 16.0152 14.1797 15.7045 13.6641C15.5 13.3203 15.267 13.0312 15.0057 12.7969C14.7443 12.5625 14.4886 12.3809 14.2386 12.252C13.9886 12.123 13.6837 12.0254 13.3239 11.959C12.964 11.8926 12.6458 11.8516 12.3693 11.8359C12.0928 11.8203 11.7348 11.8125 11.2955 11.8125C10.7424 11.8125 10.3598 11.8516 10.1477 11.9297C10.1477 12.3438 10.1458 12.9648 10.142 13.793C10.1383 14.6211 10.1364 15.2383 10.1364 15.6445C10.1364 15.707 10.1326 15.9707 10.125 16.4355C10.1174 16.9004 10.1155 17.2773 10.1193 17.5664C10.1231 17.8555 10.1402 18.1816 10.1705 18.5449C10.2008 18.9082 10.2462 19.168 10.3068 19.3242ZM10.1477 10.582C10.4659 10.6367 10.8788 10.6641 11.3864 10.6641C12.0076 10.6641 12.5492 10.6133 13.0114 10.5117C13.4735 10.4102 13.8902 10.2363 14.2614 9.99023C14.6326 9.74414 14.9148 9.39453 15.108 8.94141C15.3011 8.48828 15.3977 7.93359 15.3977 7.27734C15.3977 6.73047 15.2879 6.25195 15.0682 5.8418C14.8485 5.43164 14.5492 5.11133 14.1705 4.88086C13.7917 4.65039 13.3826 4.48047 12.9432 4.37109C12.5038 4.26172 12.0341 4.20703 11.5341 4.20703C11.1553 4.20703 10.6629 4.25781 10.0568 4.35938C10.0568 4.75 10.072 5.33984 10.1023 6.12891C10.1326 6.91797 10.1477 7.51172 10.1477 7.91016C10.1477 8.12109 10.1458 8.43359 10.142 8.84766C10.1383 9.26172 10.1364 9.57031 10.1364 9.77344C10.1364 10.1328 10.1402 10.4023 10.1477 10.582ZM4 21L4.02273 19.8984C4.13636 19.8672 4.45833 19.8047 4.98864 19.7109C5.51894 19.6172 5.92045 19.5117 6.19318 19.3945C6.24621 19.3008 6.29356 19.1953 6.33523 19.0781C6.37689 18.9609 6.40909 18.8301 6.43182 18.6855C6.45455 18.541 6.47538 18.4141 6.49432 18.3047C6.51326 18.1953 6.52462 18.0488 6.52841 17.8652C6.5322 17.6816 6.53409 17.5488 6.53409 17.4668V16.6992C6.53409 9.02734 6.45076 5.02344 6.28409 4.6875C6.25379 4.625 6.17045 4.56836 6.03409 4.51758C5.89773 4.4668 5.72917 4.42383 5.52841 4.38867C5.32765 4.35352 5.14015 4.32617 4.96591 4.30664C4.79167 4.28711 4.60795 4.26953 4.41477 4.25391C4.22159 4.23828 4.10606 4.22656 4.06818 4.21875L4.02273 3.24609C4.76515 3.23047 6.05303 3.18555 7.88636 3.11133C9.7197 3.03711 11.1326 3 12.125 3C12.2992 3 12.5568 3.00195 12.8977 3.00586C13.2386 3.00977 13.4962 3.01172 13.6705 3.01172C14.2008 3.01172 14.7178 3.0625 15.2216 3.16406C15.7254 3.26562 16.2121 3.42969 16.6818 3.65625C17.1515 3.88281 17.5606 4.16016 17.9091 4.48828C18.2576 4.81641 18.5379 5.22461 18.75 5.71289C18.9621 6.20117 19.0682 6.73828 19.0682 7.32422C19.0682 7.73047 19.0057 8.10352 18.8807 8.44336C18.7557 8.7832 18.608 9.06445 18.4375 9.28711C18.267 9.50977 18.0227 9.73438 17.7045 9.96094C17.3864 10.1875 17.1098 10.3633 16.875 10.4883C16.6402 10.6133 16.322 10.7695 15.9205 10.957C17.0871 11.2305 18.0587 11.7539 18.8352 12.5273C19.6117 13.3008 20 14.2695 20 15.4336C20 16.2148 19.8674 16.916 19.6023 17.5371C19.3371 18.1582 18.983 18.668 18.5398 19.0664C18.0966 19.4648 17.5739 19.7988 16.9716 20.0684C16.3693 20.3379 15.75 20.5273 15.1136 20.6367C14.4773 20.7461 13.8106 20.8008 13.1136 20.8008C12.7803 20.8008 12.2803 20.7891 11.6136 20.7656C10.947 20.7422 10.447 20.7305 10.1136 20.7305C9.31061 20.7305 8.14773 20.7734 6.625 20.8594C5.10227 20.9453 4.22727 20.9922 4 21Z" />
</svg>
