<svg width="24" height="24" viewBox="0 0 24 24"  xmlns="http://www.w3.org/2000/svg">
<path d="M10.6493 4.1875V4.87305C10.6493 4.92383 10.6284 4.9668 10.5867 5.00195C10.5449 5.03711 10.4955 5.05469 10.4384 5.05469H8.47396V9.8125C8.47396 9.86328 8.45419 9.90723 8.41463 9.94434C8.37508 9.98145 8.32674 10 8.26961 10H7.3797C7.32257 10 7.27313 9.98242 7.23138 9.94727C7.18963 9.91211 7.16875 9.86719 7.16875 9.8125V5.05469H5.21094C5.15381 5.05469 5.10437 5.03711 5.06262 5.00195C5.02087 4.9668 5 4.92383 5 4.87305V4.1875C5 4.13281 5.01978 4.08789 5.05933 4.05273C5.09888 4.01758 5.14942 4 5.21094 4H10.4384C10.4955 4 10.5449 4.01855 10.5867 4.05566C10.6284 4.09277 10.6493 4.13672 10.6493 4.1875ZM17.4918 4.16992L17.9993 9.80078C18.0037 9.85156 17.9862 9.89844 17.9466 9.94141C17.9027 9.98047 17.8521 10 17.795 10H16.9117C16.8589 10 16.8128 9.9834 16.7732 9.9502C16.7337 9.91699 16.7117 9.87695 16.7073 9.83008L16.4041 6.38477L15.1582 8.875C15.123 8.94922 15.0593 8.98633 14.967 8.98633H14.176C14.0881 8.98633 14.0244 8.94922 13.9848 8.875L12.7456 6.37305L12.4489 9.83008C12.4445 9.87695 12.4225 9.91699 12.383 9.9502C12.3434 9.9834 12.2973 10 12.2446 10H11.3546C11.2975 10 11.247 9.98047 11.203 9.94141C11.1635 9.90234 11.1437 9.85547 11.1437 9.80078L11.6579 4.16992C11.6623 4.12305 11.6842 4.08301 11.7238 4.0498C11.7633 4.0166 11.8095 4 11.8622 4H12.7983C12.8862 4 12.9499 4.03711 12.9895 4.11133L14.4397 7.1582C14.4836 7.25195 14.5276 7.35156 14.5715 7.45703C14.5847 7.42969 14.6056 7.38184 14.6341 7.31348C14.6627 7.24512 14.6858 7.19336 14.7034 7.1582L16.1602 4.11133C16.1997 4.03711 16.2635 4 16.3514 4H17.2808C17.3379 4 17.3863 4.0166 17.4258 4.0498C17.4654 4.08301 17.4874 4.12305 17.4918 4.16992Z" />
<path d="M16 20.4444C16 20.5949 15.9443 20.7251 15.833 20.8351C15.7217 20.945 15.5898 21 15.4375 21H7.5625C7.41016 21 7.27832 20.945 7.16699 20.8351C7.05566 20.7251 7 20.5949 7 20.4444C7 20.294 7.05566 20.1638 7.16699 20.0538L11.1045 16.1649C11.2158 16.055 11.3477 16 11.5 16C11.6523 16 11.7842 16.055 11.8955 16.1649L15.833 20.0538C15.9443 20.1638 16 20.294 16 20.4444Z" />
</svg>
