<svg width="24" height="24" viewBox="0 0 24 24"  xmlns="http://www.w3.org/2000/svg">
<path d="M7 4.55556C7 4.40509 7.05566 4.27489 7.16699 4.16493C7.27832 4.05498 7.41016 4 7.5625 4L15.4375 4C15.5898 4 15.7217 4.05498 15.833 4.16493C15.9443 4.27488 16 4.40509 16 4.55556C16 4.70602 15.9443 4.83623 15.833 4.94618L11.8955 8.83507C11.7842 8.94502 11.6523 9 11.5 9C11.3477 9 11.2158 8.94502 11.1045 8.83507L7.16699 4.94618C7.05566 4.83623 7 4.70602 7 4.55556Z" />
<path d="M14.3955 21H9.43457V19.9258L11.7197 17.5234C12.2829 16.8822 12.5645 16.3727 12.5645 15.9951C12.5645 15.6891 12.4977 15.4564 12.3643 15.2969C12.2308 15.1374 12.0371 15.0576 11.7832 15.0576C11.5326 15.0576 11.3291 15.165 11.1729 15.3799C11.0166 15.5915 10.9385 15.8568 10.9385 16.1758H9.28809C9.28809 15.7396 9.39714 15.3376 9.61523 14.9697C9.83333 14.5986 10.1361 14.3089 10.5234 14.1006C10.9108 13.8923 11.3438 13.7881 11.8223 13.7881C12.5905 13.7881 13.1813 13.9655 13.5947 14.3203C14.0114 14.6751 14.2197 15.1846 14.2197 15.8486C14.2197 16.1286 14.1676 16.402 14.0635 16.6689C13.9593 16.9326 13.7965 17.2109 13.5752 17.5039C13.3571 17.7936 13.0039 18.1826 12.5156 18.6709L11.5977 19.7305H14.3955V21Z" />
</svg>
