<svg width="24" height="24" viewBox="0 0 24 24"  xmlns="http://www.w3.org/2000/svg">
<path d="M3.5625 4.11328C3.27344 4.09766 3.09766 4.08203 3.03516 4.06641L3 3.03516C3.10156 3.02734 3.25781 3.02344 3.46875 3.02344C3.9375 3.02344 4.375 3.03906 4.78125 3.07031C5.8125 3.125 6.46094 3.15234 6.72656 3.15234C7.39844 3.15234 8.05469 3.14062 8.69531 3.11719C9.60156 3.08594 10.1719 3.06641 10.4062 3.05859C10.8438 3.05859 11.1797 3.05078 11.4141 3.03516L11.4023 3.19922L11.4258 3.94922V4.05469C10.957 4.125 10.4727 4.16016 9.97266 4.16016C9.50391 4.16016 9.19531 4.25781 9.04688 4.45312C8.94531 4.5625 8.89453 5.07812 8.89453 6C8.89453 6.10156 8.89648 6.22852 8.90039 6.38086C8.9043 6.5332 8.90625 6.63281 8.90625 6.67969L8.91797 9.36328L9.08203 12.6445C9.12891 13.6133 9.32812 14.4023 9.67969 15.0117C9.95312 15.4727 10.3281 15.832 10.8047 16.0898C11.4922 16.457 12.1836 16.6406 12.8789 16.6406C13.6914 16.6406 14.4375 16.5312 15.1172 16.3125C15.5547 16.1719 15.9414 15.9727 16.2773 15.7148C16.6523 15.4336 16.9062 15.1836 17.0391 14.9648C17.3203 14.5273 17.5273 14.082 17.6602 13.6289C17.8242 13.0586 17.9062 12.1641 17.9062 10.9453C17.9062 10.3281 17.8926 9.82812 17.8652 9.44531C17.8379 9.0625 17.7949 8.58398 17.7363 8.00977C17.6777 7.43555 17.625 6.8125 17.5781 6.14062L17.5312 5.44922C17.4922 4.92578 17.3984 4.58203 17.25 4.41797C16.9844 4.14453 16.6836 4.01172 16.3477 4.01953L15.1758 4.04297L15.0117 4.00781L15.0352 3H16.0195L18.4219 3.11719C19.0156 3.14062 19.7812 3.10156 20.7188 3L20.9297 3.02344C20.9766 3.32031 21 3.51953 21 3.62109C21 3.67578 20.9844 3.79688 20.9531 3.98438C20.6016 4.07812 20.2734 4.12891 19.9688 4.13672C19.3984 4.22266 19.0898 4.28906 19.043 4.33594C18.9258 4.45312 18.8672 4.61328 18.8672 4.81641C18.8672 4.87109 18.873 4.97656 18.8848 5.13281C18.8965 5.28906 18.9023 5.41016 18.9023 5.49609C18.9648 5.64453 19.0508 7.19141 19.1602 10.1367C19.207 11.6602 19.1484 12.8477 18.9844 13.6992C18.8672 14.293 18.707 14.7695 18.5039 15.1289C18.207 15.6367 17.7695 16.1172 17.1914 16.5703C16.6055 17.0156 15.8945 17.3633 15.0586 17.6133C14.207 17.8711 13.2109 18 12.0703 18C10.7656 18 9.65625 17.8203 8.74219 17.4609C7.8125 17.0938 7.11328 16.6172 6.64453 16.0312C6.16797 15.4375 5.84375 14.6758 5.67188 13.7461C5.54688 13.1211 5.48438 12.1953 5.48438 10.9688V7.06641C5.48438 5.59766 5.41797 4.76562 5.28516 4.57031C5.08984 4.28906 4.51562 4.13672 3.5625 4.11328ZM21 20.625V19.875C21 19.7656 20.9648 19.6758 20.8945 19.6055C20.8242 19.5352 20.7344 19.5 20.625 19.5H3.375C3.26562 19.5 3.17578 19.5352 3.10547 19.6055C3.03516 19.6758 3 19.7656 3 19.875V20.625C3 20.7344 3.03516 20.8242 3.10547 20.8945C3.17578 20.9648 3.26562 21 3.375 21H20.625C20.7344 21 20.8242 20.9648 20.8945 20.8945C20.9648 20.8242 21 20.7344 21 20.625Z" />
</svg>
