<svg width="24" height="24" viewBox="0 0 24 24"  xmlns="http://www.w3.org/2000/svg">

<path d="M18.1176 15.7647C18.1176 15.5033 18.0261 15.281 17.8431 15.098L15.8039 13.0588C15.6209 12.8758 15.3987 12.7843 15.1373 12.7843C14.8627 12.7843 14.6275 12.8889 14.4314 13.098C14.451 13.1176 14.5131 13.1781 14.6176 13.2794C14.7222 13.3807 14.7925 13.451 14.8284 13.4902C14.8644 13.5294 14.9134 13.5915 14.9755 13.6765C15.0376 13.7614 15.0801 13.8448 15.1029 13.9265C15.1258 14.0082 15.1373 14.098 15.1373 14.1961C15.1373 14.4575 15.0458 14.6797 14.8627 14.8627C14.6797 15.0458 14.4575 15.1373 14.1961 15.1373C14.098 15.1373 14.0082 15.1258 13.9265 15.1029C13.8448 15.0801 13.7614 15.0376 13.6765 14.9755C13.5915 14.9134 13.5294 14.8644 13.4902 14.8284C13.451 14.7925 13.3807 14.7222 13.2794 14.6176C13.1781 14.5131 13.1176 14.451 13.098 14.4314C12.8824 14.634 12.7745 14.8725 12.7745 15.1471C12.7745 15.4085 12.866 15.6307 13.049 15.8137L15.0686 17.8431C15.2451 18.0196 15.4673 18.1078 15.7353 18.1078C15.9967 18.1078 16.219 18.0229 16.402 17.8529L17.8431 16.4216C18.0261 16.2386 18.1176 16.0196 18.1176 15.7647ZM11.2255 8.85294C11.2255 8.5915 11.134 8.36928 10.951 8.18627L8.93137 6.15686C8.74837 5.97386 8.52614 5.88235 8.26471 5.88235C8.0098 5.88235 7.78758 5.97059 7.59804 6.14706L6.15686 7.57843C5.97386 7.76144 5.88235 7.98039 5.88235 8.23529C5.88235 8.49673 5.97386 8.71895 6.15686 8.90196L8.19608 10.9412C8.37255 11.1176 8.59477 11.2059 8.86275 11.2059C9.13726 11.2059 9.37255 11.1046 9.56863 10.902C9.54902 10.8824 9.48693 10.8219 9.38235 10.7206C9.27778 10.6193 9.20752 10.549 9.17157 10.5098C9.13562 10.4706 9.0866 10.4085 9.02451 10.3235C8.96242 10.2386 8.91993 10.1552 8.89706 10.0735C8.87418 9.99183 8.86275 9.90196 8.86275 9.80392C8.86275 9.54248 8.95425 9.32026 9.13726 9.13726C9.32026 8.95425 9.54248 8.86275 9.80392 8.86275C9.90196 8.86275 9.99183 8.87418 10.0735 8.89706C10.1552 8.91993 10.2386 8.96242 10.3235 9.02451C10.4085 9.0866 10.4706 9.13562 10.5098 9.17157C10.549 9.20752 10.6193 9.27778 10.7206 9.38235C10.8219 9.48693 10.8824 9.54902 10.902 9.56863C11.1176 9.36601 11.2255 9.12745 11.2255 8.85294ZM20 15.7647C20 16.549 19.7222 17.2124 19.1667 17.7549L17.7255 19.1863C17.183 19.7288 16.5196 20 15.7353 20C14.9444 20 14.2778 19.7222 13.7353 19.1667L11.7157 17.1373C11.1732 16.5948 10.902 15.9314 10.902 15.1471C10.902 14.3431 11.1895 13.6601 11.7647 13.098L10.902 12.2353C10.3399 12.8105 9.66013 13.098 8.86275 13.098C8.07843 13.098 7.41176 12.8235 6.86275 12.2745L4.82353 10.2353C4.27451 9.68627 4 9.01961 4 8.23529C4 7.45098 4.27778 6.78758 4.83333 6.2451L6.27451 4.81373C6.81699 4.27124 7.48039 4 8.26471 4C9.05556 4 9.72222 4.27778 10.2647 4.83333L12.2843 6.86275C12.8268 7.40523 13.098 8.06863 13.098 8.85294C13.098 9.65686 12.8105 10.3399 12.2353 10.902L13.098 11.7647C13.6601 11.1895 14.3399 10.902 15.1373 10.902C15.9216 10.902 16.5882 11.1765 17.1373 11.7255L19.1765 13.7647C19.7255 14.3137 20 14.9804 20 15.7647Z" />
</svg>
